<svg width="120" height="120" viewBox="0 0 120 120" fill="none" xmlns="http://www.w3.org/2000/svg">
<rect width="120" height="120" rx="12" fill="white"/>
<mask id="mask0" mask-type="alpha" maskUnits="userSpaceOnUse" x="17" y="16" width="78" height="88">
<rect x="17" y="16" width="78" height="88" fill="#C4C4C4"/>
</mask>
<g mask="url(#mask0)">
<path d="M-213.326 33.608C-215.822 33.608 -216.782 35.24 -215.726 35.432C-214.574 35.624 -213.038 36.392 -212.942 37.16C-212.942 37.928 -213.134 38.984 -213.326 39.656C-224.75 40.808 -231.854 46.76 -231.854 57.704C-231.854 69.896 -223.214 75.752 -209.87 75.56C-196.814 75.368 -188.174 69.896 -188.174 57.704C-188.174 46.568 -195.47 40.328 -206.894 39.56C-206.318 38.6 -205.358 37.064 -204.878 35.816C-204.494 34.856 -210.446 33.608 -213.326 33.608ZM-161.678 27.176C-161.678 24.296 -161.006 22.952 -160.718 22.472C-160.526 21.992 -161.102 21.608 -163.598 20.648C-165.998 19.688 -176.75 17.096 -180.494 17.384C-182.894 17.672 -184.046 18.824 -182.03 19.4C-178.478 20.264 -175.886 22.952 -175.886 25.448V99.944C-175.886 101.192 -175.502 102.344 -172.334 102.344C-168.398 102.344 -161.678 100.136 -161.678 97.256V27.176ZM-217.55 57.416C-217.55 48.392 -214.67 43.592 -209.87 43.592C-205.166 43.592 -202.286 48.392 -202.286 57.416C-202.286 66.248 -205.166 71.144 -209.87 71.144C-214.67 71.144 -217.55 66.248 -217.55 57.416ZM-94.1602 34.088C-94.1602 31.208 -93.4883 29.864 -93.2002 29.384C-92.9123 28.904 -93.5842 28.52 -96.0803 27.56C-98.4802 26.6 -107.408 24.872 -111.056 25.256C-113.456 25.544 -114.704 26.6 -112.688 27.176C-109.04 28.136 -106.448 30.824 -106.448 33.32V69.512C-106.448 70.76 -106.064 71.912 -102.992 71.912C-98.9602 71.912 -94.1602 69.8 -94.1602 66.824V50.984L-88.4963 50.792V67.688C-88.4963 68.936 -88.1123 70.088 -85.0403 70.088C-81.0083 70.088 -74.7683 67.88 -74.7683 65V26.696C-74.7683 23.912 -74.0962 22.472 -73.8082 21.992C-73.5203 21.608 -74.1922 21.128 -76.6882 20.168C-79.0882 19.304 -89.4563 17.096 -93.1042 17.384C-95.5042 17.672 -96.6562 18.824 -94.6402 19.4C-91.0882 20.264 -88.4963 22.952 -88.4963 25.448V47.144C-90.4163 47.24 -92.4322 47.24 -94.1602 47.24V34.088ZM-127.856 47.24C-129.776 54.824 -137.648 65.864 -148.592 70.952C-149.648 71.432 -149.552 72.584 -147.152 72.584C-145.232 72.584 -141.584 72.104 -140.72 71.912C-133.136 70.088 -127.472 66.728 -122.96 62.408C-121.808 64.328 -122.096 67.112 -119.504 70.184C-115.952 74.12 -111.44 72.2 -110 69.896C-108.272 67.304 -108.656 63.272 -112.304 60.872C-114.416 59.432 -117.008 58.856 -119.6 58.664C-117.104 55.592 -115.088 52.136 -113.168 48.296C-112.496 46.856 -109.616 45.512 -110.576 44.36C-111.728 42.92 -122.096 38.696 -123.632 39.848C-124.4 40.328 -125.744 42.92 -127.952 43.496C-129.296 43.88 -132.848 44.264 -136.496 44.264C-142.16 44.264 -144.56 43.4 -145.424 43.304C-146.48 43.208 -146.384 43.88 -145.616 44.84C-144.08 46.856 -139.088 49.352 -137.264 49.352C-136.4 49.352 -136.976 48.2 -133.424 47.624C-131.408 47.336 -128.816 47.24 -127.856 47.24ZM-91.3762 76.328C-95.3123 76.808 -111.632 77 -117.776 76.904C-124.208 76.808 -127.28 75.944 -128.528 75.752C-129.392 75.656 -129.488 76.424 -128.72 77.384C-127.088 79.592 -120.848 82.472 -118.832 82.472C-117.968 82.472 -118.64 81.512 -114.8 80.744C-110.288 79.88 -96.4643 80.168 -90.1282 79.976V100.04C-90.1282 101.192 -89.7442 102.248 -86.8643 102.248C-83.0242 102.248 -75.9202 100.232 -75.9202 97.448V81.608C-75.9202 79.976 -73.3282 78.248 -74.2882 77.096C-75.4402 75.656 -85.2322 71.624 -86.7683 72.68C-87.5362 73.256 -89.1682 76.04 -91.3762 76.328ZM-123.92 37.544C-119.312 38.12 -116.528 36.776 -115.76 34.28C-114.416 29.768 -118.256 27.56 -123.344 27.848C-127.184 28.136 -131.12 29.096 -135.728 27.464C-139.376 26.12 -138.608 27.752 -136.304 30.536C-133.232 34.088 -129.104 36.776 -123.92 37.544ZM-16.0238 59.336C-14.6798 59.144 -12.1838 59.048 -8.34375 58.952V99.944C-8.34375 101.192 -7.95975 102.344 -4.79175 102.344C-0.855751 102.344 5.86425 100.136 5.86425 97.256V27.176C5.86425 24.296 6.53625 22.952 6.82425 22.472C7.11225 21.992 6.44025 21.608 3.94425 20.648C1.54425 19.688 -9.20775 17.096 -12.9517 17.384C-15.3518 17.672 -16.5037 18.824 -14.4878 19.4C-10.9358 20.264 -8.34375 22.952 -8.34375 25.448V55.208C-10.7437 55.496 -17.5598 55.592 -20.3438 55.304C-22.4558 55.112 -23.2238 54.824 -23.8958 54.728C-24.5678 54.728 -24.6638 55.304 -23.8958 56.36C-22.7438 58.088 -19.6718 60.392 -18.4238 60.392C-18.1358 60.392 -18.2318 59.624 -16.0238 59.336ZM-38.3918 42.44C-41.4638 55.592 -50.9678 72.872 -67.4798 83.528C-68.5358 84.104 -68.5358 85.16 -66.0398 85.16C-64.1198 85.16 -60.4718 84.104 -59.6078 83.816C-50.1038 80.552 -41.2718 73.544 -34.3598 65C-31.4798 69.416 -29.9438 76.04 -28.5038 79.688C-27.0638 83.336 -22.3598 85.256 -18.6158 82.952C-15.6397 81.128 -14.8718 75.656 -16.3118 72.296C-18.8078 66.632 -24.5678 63.368 -30.9038 60.392C-27.3518 55.112 -24.4718 49.352 -22.6478 43.688C-22.2638 42.344 -18.9998 40.232 -20.0557 39.08C-21.1118 37.736 -32.7278 32.168 -34.2638 33.128C-35.1278 33.512 -37.0478 38.312 -39.2558 38.696C-41.0798 38.984 -48.7598 39.368 -52.5998 39.368C-58.3598 39.368 -60.8558 38.504 -61.8158 38.408C-62.8718 38.312 -62.7758 38.984 -62.0078 39.944C-60.3758 42.056 -54.7118 44.84 -52.7918 44.84C-51.9278 44.84 -52.2158 43.304 -48.4718 42.92C-44.3438 42.536 -41.6558 42.536 -38.3918 42.44ZM73.3823 34.088C73.3823 31.208 74.0543 29.864 74.3423 29.384C74.6303 28.904 73.9583 28.52 71.4623 27.56C69.0623 26.6 60.1343 24.872 56.4863 25.256C54.0863 25.544 52.8383 26.6 54.8543 27.176C58.5023 28.136 61.0943 30.824 61.0943 33.32V69.512C61.0943 70.76 61.4783 71.912 64.5503 71.912C68.5823 71.912 73.3823 69.8 73.3823 66.824V50.984L79.0463 50.792V67.688C79.0463 68.936 79.4303 70.088 82.5023 70.088C86.5343 70.088 92.7743 67.88 92.7743 65V26.696C92.7743 23.912 93.4463 22.472 93.7343 21.992C94.0223 21.608 93.3503 21.128 90.8543 20.168C88.4543 19.304 78.0863 17.096 74.4383 17.384C72.0383 17.672 70.8863 18.824 72.9023 19.4C76.4543 20.264 79.0463 22.952 79.0463 25.448V47.144C77.1263 47.24 75.1103 47.24 73.3823 47.24V34.088ZM39.6863 47.24C37.7663 54.824 29.8943 65.864 18.9503 70.952C17.8943 71.432 17.9903 72.584 20.3903 72.584C22.3103 72.584 25.9583 72.104 26.8223 71.912C34.4063 70.088 40.0703 66.728 44.5823 62.408C45.7343 64.328 45.4463 67.112 48.0383 70.184C51.5903 74.12 56.1023 72.2 57.5423 69.896C59.2703 67.304 58.8863 63.272 55.2383 60.872C53.1263 59.432 50.5343 58.856 47.9423 58.664C50.4383 55.592 52.4543 52.136 54.3743 48.296C55.0463 46.856 57.9263 45.512 56.9663 44.36C55.8143 42.92 45.4463 38.696 43.9103 39.848C43.1423 40.328 41.7983 42.92 39.5903 43.496C38.2463 43.88 34.6943 44.264 31.0463 44.264C25.3823 44.264 22.9823 43.4 22.1183 43.304C21.0623 43.208 21.1583 43.88 21.9263 44.84C23.4623 46.856 28.4543 49.352 30.2783 49.352C31.1423 49.352 30.5663 48.2 34.1183 47.624C36.1343 47.336 38.7263 47.24 39.6863 47.24ZM76.1663 76.328C72.2303 76.808 55.9103 77 49.7663 76.904C43.3343 76.808 40.2623 75.944 39.0143 75.752C38.1503 75.656 38.0543 76.424 38.8223 77.384C40.4543 79.592 46.6943 82.472 48.7103 82.472C49.5743 82.472 48.9023 81.512 52.7423 80.744C57.2543 79.88 71.0783 80.168 77.4143 79.976V100.04C77.4143 101.192 77.7983 102.248 80.6783 102.248C84.5183 102.248 91.6223 100.232 91.6223 97.448V81.608C91.6223 79.976 94.2143 78.248 93.2543 77.096C92.1023 75.656 82.3103 71.624 80.7743 72.68C80.0063 73.256 78.3743 76.04 76.1663 76.328ZM43.6223 37.544C48.2303 38.12 51.0143 36.776 51.7823 34.28C53.1263 29.768 49.2863 27.56 44.1983 27.848C40.3583 28.136 36.4223 29.096 31.8143 27.464C28.1663 26.12 28.9343 27.752 31.2383 30.536C34.3103 34.088 38.4383 36.776 43.6223 37.544Z" fill="#5A5F54"/>
</g>
</svg>
