<svg width="759" height="720" viewBox="0 0 759 720" fill="none" xmlns="http://www.w3.org/2000/svg">
<g opacity="0.6" clip-path="url(#clip0)">
<path opacity="0.25" d="M506.236 641.497C668.138 636.35 735.652 469.82 720.065 281.462C710.585 166.908 659.32 60.9379 566.007 0H175.303C134.817 25.7558 104.145 57.1853 80.1663 85.9421C-16.2586 201.563 -28.4739 396.991 58.6695 497.097C145.813 597.203 319.654 647.427 506.236 641.497Z" fill="url(#paint0_linear)"/>
<path opacity="0.25" d="M351.018 677.244C487.986 735.638 676.919 691.229 747.323 579.819C751.467 573.261 755.353 566.461 759.003 559.449V116.7C758.664 115.664 758.33 114.624 757.985 113.59C739.859 59.0746 705.5 21.9917 660.855 0H394.455C381.618 4.12704 368.744 8.72064 355.885 13.7923C199.149 75.6115 85.9527 218.684 128.311 410.121C165.336 577.472 270.542 642.934 351.018 677.244Z" fill="url(#paint1_linear)"/>
<path opacity="0.25" d="M755.736 428.268C756.84 425.192 757.927 422.087 759 418.962V190.573C741.015 161.248 712.204 135.654 668.624 116.487C520.864 51.4945 164.154 97.1741 60.6938 299.877C-23.1563 464.164 86.9227 643.014 236.5 707.5L304 732.5L382.5 743.5L466.99 720C606.337 667.19 718.497 532.034 755.736 428.268Z" fill="url(#paint2_linear)"/>
</g>
<defs>
<linearGradient id="paint0_linear" x1="361.125" y1="641.968" x2="361.125" y2="0" gradientUnits="userSpaceOnUse">
<stop stop-color="#7094FB"/>
<stop offset="0.4939" stop-color="#A886AA"/>
<stop offset="1" stop-color="#F39638"/>
</linearGradient>
<linearGradient id="paint1_linear" x1="439.177" y1="703.008" x2="439.177" y2="0" gradientUnits="userSpaceOnUse">
<stop stop-color="#7094FB"/>
<stop offset="1" stop-color="#F27C2B"/>
</linearGradient>
<linearGradient id="paint2_linear" x1="123.311" y1="629.437" x2="714.13" y2="134.334" gradientUnits="userSpaceOnUse">
<stop stop-color="#F5C856"/>
<stop offset="1" stop-color="#7094FB"/>
</linearGradient>
<clipPath id="clip0">
<rect width="759" height="720" fill="white"/>
</clipPath>
</defs>
</svg>
