<svg width="125" height="33" viewBox="0 0 125 33" fill="none" xmlns="http://www.w3.org/2000/svg">
<path d="M7.61016 6.228C6.67416 6.228 6.31416 6.84 6.71016 6.912C7.14216 6.984 7.71816 7.272 7.75416 7.56C7.75416 7.848 7.68216 8.244 7.61016 8.496C3.32616 8.928 0.66216 11.16 0.66216 15.264C0.66216 19.836 3.90216 22.032 8.90616 21.96C13.8022 21.888 17.0422 19.836 17.0422 15.264C17.0422 11.088 14.3062 8.748 10.0222 8.46C10.2382 8.1 10.5982 7.524 10.7782 7.056C10.9222 6.696 8.69016 6.228 7.61016 6.228ZM26.9782 3.816C26.9782 2.736 27.2302 2.232 27.3382 2.052C27.4102 1.872 27.1942 1.728 26.2582 1.368C25.3582 1.008 21.3262 0.0359995 19.9222 0.143998C19.0222 0.251999 18.5902 0.684 19.3462 0.899999C20.6782 1.224 21.6502 2.232 21.6502 3.168V31.104C21.6502 31.572 21.7942 32.004 22.9822 32.004C24.4582 32.004 26.9782 31.176 26.9782 30.096V3.816ZM6.02616 15.156C6.02616 11.772 7.10616 9.972 8.90616 9.972C10.6702 9.972 11.7502 11.772 11.7502 15.156C11.7502 18.468 10.6702 20.304 8.90616 20.304C7.10616 20.304 6.02616 18.468 6.02616 15.156ZM53.0174 6.408C53.0174 5.328 53.2694 4.824 53.3774 4.644C53.4854 4.464 53.2334 4.32 52.2974 3.96C51.3974 3.6 48.0494 2.952 46.6814 3.096C45.7814 3.204 45.3134 3.6 46.0694 3.816C47.4374 4.176 48.4094 5.184 48.4094 6.12V19.692C48.4094 20.16 48.5534 20.592 49.7054 20.592C51.2174 20.592 53.0174 19.8 53.0174 18.684V12.744L55.1414 12.672V19.008C55.1414 19.476 55.2854 19.908 56.4374 19.908C57.9494 19.908 60.2894 19.08 60.2894 18V3.636C60.2894 2.592 60.5414 2.052 60.6494 1.872C60.7574 1.728 60.5054 1.548 59.5694 1.188C58.6694 0.864 54.7814 0.0359995 53.4134 0.143998C52.5134 0.251999 52.0814 0.684 52.8374 0.899999C54.1694 1.224 55.1414 2.232 55.1414 3.168V11.304C54.4214 11.34 53.6654 11.34 53.0174 11.34V6.408ZM40.3814 11.34C39.6614 14.184 36.7094 18.324 32.6054 20.232C32.2094 20.412 32.2454 20.844 33.1454 20.844C33.8654 20.844 35.2334 20.664 35.5574 20.592C38.4014 19.908 40.5254 18.648 42.2174 17.028C42.6494 17.748 42.5414 18.792 43.5134 19.944C44.8454 21.42 46.5374 20.7 47.0774 19.836C47.7254 18.864 47.5814 17.352 46.2134 16.452C45.4214 15.912 44.4494 15.696 43.4774 15.624C44.4134 14.472 45.1694 13.176 45.8894 11.736C46.1414 11.196 47.2214 10.692 46.8614 10.26C46.4294 9.72 42.5414 8.136 41.9654 8.568C41.6774 8.748 41.1734 9.72 40.3454 9.936C39.8414 10.08 38.5094 10.224 37.1414 10.224C35.0174 10.224 34.1174 9.9 33.7934 9.864C33.3974 9.828 33.4334 10.08 33.7214 10.44C34.2974 11.196 36.1694 12.132 36.8534 12.132C37.1774 12.132 36.9614 11.7 38.2934 11.484C39.0494 11.376 40.0214 11.34 40.3814 11.34ZM54.0614 22.248C52.5854 22.428 46.4654 22.5 44.1614 22.464C41.7494 22.428 40.5974 22.104 40.1294 22.032C39.8054 21.996 39.7694 22.284 40.0574 22.644C40.6694 23.472 43.0094 24.552 43.7654 24.552C44.0894 24.552 43.8374 24.192 45.2774 23.904C46.9694 23.58 52.1534 23.688 54.5294 23.616V31.14C54.5294 31.572 54.6734 31.968 55.7534 31.968C57.1934 31.968 59.8574 31.212 59.8574 30.168V24.228C59.8574 23.616 60.8294 22.968 60.4694 22.536C60.0374 21.996 56.3654 20.484 55.7894 20.88C55.5014 21.096 54.8894 22.14 54.0614 22.248ZM41.8574 7.704C43.5854 7.92 44.6294 7.416 44.9174 6.48C45.4214 4.788 43.9814 3.96 42.0734 4.068C40.6334 4.176 39.1574 4.536 37.4294 3.924C36.0614 3.42 36.3494 4.032 37.2134 5.076C38.3654 6.408 39.9134 7.416 41.8574 7.704ZM83.0386 15.876C83.5426 15.804 84.4786 15.768 85.9186 15.732V31.104C85.9186 31.572 86.0626 32.004 87.2506 32.004C88.7266 32.004 91.2466 31.176 91.2466 30.096V3.816C91.2466 2.736 91.4986 2.232 91.6066 2.052C91.7146 1.872 91.4626 1.728 90.5266 1.368C89.6266 1.008 85.5946 0.0359995 84.1906 0.143998C83.2906 0.251999 82.8586 0.684 83.6146 0.899999C84.9466 1.224 85.9186 2.232 85.9186 3.168V14.328C85.0186 14.436 82.4626 14.472 81.4186 14.364C80.6266 14.292 80.3386 14.184 80.0866 14.148C79.8346 14.148 79.7986 14.364 80.0866 14.76C80.5186 15.408 81.6706 16.272 82.1386 16.272C82.2466 16.272 82.2106 15.984 83.0386 15.876ZM74.6506 9.54C73.4986 14.472 69.9346 20.952 63.7426 24.948C63.3466 25.164 63.3466 25.56 64.2826 25.56C65.0026 25.56 66.3706 25.164 66.6946 25.056C70.2586 23.832 73.5706 21.204 76.1626 18C77.2426 19.656 77.8186 22.14 78.3586 23.508C78.8986 24.876 80.6626 25.596 82.0666 24.732C83.1826 24.048 83.4706 21.996 82.9306 20.736C81.9946 18.612 79.8346 17.388 77.4586 16.272C78.7906 14.292 79.8706 12.132 80.5546 10.008C80.6986 9.504 81.9226 8.712 81.5266 8.28C81.1306 7.776 76.7746 5.688 76.1986 6.048C75.8746 6.192 75.1546 7.992 74.3266 8.136C73.6426 8.244 70.7626 8.388 69.3226 8.388C67.1626 8.388 66.2266 8.064 65.8666 8.028C65.4706 7.992 65.5066 8.244 65.7946 8.604C66.4066 9.396 68.5306 10.44 69.2506 10.44C69.5746 10.44 69.4666 9.864 70.8706 9.72C72.4186 9.576 73.4266 9.576 74.6506 9.54ZM117.286 6.408C117.286 5.328 117.538 4.824 117.646 4.644C117.754 4.464 117.502 4.32 116.566 3.96C115.666 3.6 112.318 2.952 110.95 3.096C110.05 3.204 109.582 3.6 110.338 3.816C111.706 4.176 112.678 5.184 112.678 6.12V19.692C112.678 20.16 112.822 20.592 113.974 20.592C115.486 20.592 117.286 19.8 117.286 18.684V12.744L119.41 12.672V19.008C119.41 19.476 119.554 19.908 120.706 19.908C122.218 19.908 124.558 19.08 124.558 18V3.636C124.558 2.592 124.81 2.052 124.918 1.872C125.026 1.728 124.774 1.548 123.838 1.188C122.938 0.864 119.05 0.0359995 117.682 0.143998C116.782 0.251999 116.35 0.684 117.106 0.899999C118.438 1.224 119.41 2.232 119.41 3.168V11.304C118.69 11.34 117.934 11.34 117.286 11.34V6.408ZM104.65 11.34C103.93 14.184 100.978 18.324 96.8738 20.232C96.4778 20.412 96.5138 20.844 97.4138 20.844C98.1338 20.844 99.5018 20.664 99.8258 20.592C102.67 19.908 104.794 18.648 106.486 17.028C106.918 17.748 106.81 18.792 107.782 19.944C109.114 21.42 110.806 20.7 111.346 19.836C111.994 18.864 111.85 17.352 110.482 16.452C109.69 15.912 108.718 15.696 107.746 15.624C108.682 14.472 109.438 13.176 110.158 11.736C110.41 11.196 111.49 10.692 111.13 10.26C110.698 9.72 106.81 8.136 106.234 8.568C105.946 8.748 105.442 9.72 104.614 9.936C104.11 10.08 102.778 10.224 101.41 10.224C99.2858 10.224 98.3858 9.9 98.0618 9.864C97.6658 9.828 97.7018 10.08 97.9898 10.44C98.5658 11.196 100.438 12.132 101.122 12.132C101.446 12.132 101.23 11.7 102.562 11.484C103.318 11.376 104.29 11.34 104.65 11.34ZM118.33 22.248C116.854 22.428 110.734 22.5 108.43 22.464C106.018 22.428 104.866 22.104 104.398 22.032C104.074 21.996 104.038 22.284 104.326 22.644C104.938 23.472 107.278 24.552 108.034 24.552C108.358 24.552 108.106 24.192 109.546 23.904C111.238 23.58 116.422 23.688 118.798 23.616V31.14C118.798 31.572 118.942 31.968 120.022 31.968C121.462 31.968 124.126 31.212 124.126 30.168V24.228C124.126 23.616 125.098 22.968 124.738 22.536C124.306 21.996 120.634 20.484 120.058 20.88C119.77 21.096 119.158 22.14 118.33 22.248ZM106.126 7.704C107.854 7.92 108.898 7.416 109.186 6.48C109.69 4.788 108.25 3.96 106.342 4.068C104.902 4.176 103.426 4.536 101.698 3.924C100.33 3.42 100.618 4.032 101.482 5.076C102.634 6.408 104.182 7.416 106.126 7.704Z" fill="black"/>
</svg>
