<svg width="27" height="20" viewBox="0 0 27 20" fill="none" xmlns="http://www.w3.org/2000/svg">
<circle opacity="0.15" cx="17.6924" cy="10.1538" r="9.30763" fill="url(#paint0_linear)"/>
<circle opacity="0.25" cx="14.3076" cy="9.30763" r="9.30763" fill="url(#paint1_linear)"/>
<path d="M2.29036 7.292C1.36636 7.304 0.91036 7.16 0.73036 7.136C0.61036 7.124 0.59836 7.232 0.70636 7.376C0.94636 7.7 1.85836 8.132 2.14636 8.132C2.26636 8.132 2.23036 7.928 2.79436 7.856C3.33436 7.796 4.25836 7.736 5.33836 7.712V12.212C5.33836 12.38 5.38636 12.512 5.78236 12.512C6.27436 12.512 7.11436 12.248 7.11436 11.888V7.688C8.44636 7.676 9.81436 7.7 10.9424 7.76C11.3144 7.784 11.4944 7.676 11.3984 7.34C11.2784 6.896 10.5584 6.392 10.3544 6.392C9.98236 6.392 9.76636 7.184 9.22636 7.196L8.60236 7.208C8.86636 6.608 9.40636 4.916 9.68236 4.112C9.75436 3.932 10.0784 3.752 9.94636 3.596C9.81436 3.428 8.36236 2.78 8.17036 2.924C8.07436 2.984 7.78636 3.476 7.51036 3.5C6.59836 3.572 4.52236 3.572 3.95836 3.56C3.15436 3.548 2.75836 3.452 2.62636 3.44C2.49436 3.428 2.49436 3.524 2.60236 3.632C2.79436 3.92 3.46636 4.244 3.70636 4.244C3.82636 4.244 3.79036 4.04 4.27036 4.016C4.82236 3.992 7.10236 3.956 7.64236 3.956C7.54636 4.856 7.27036 6.344 7.06636 7.232L2.29036 7.292ZM19.3456 4.256C19.3456 3.896 19.4296 3.728 19.4656 3.668C19.4896 3.608 19.4176 3.548 19.1056 3.44C18.8056 3.32 17.6296 3.104 17.1616 3.152C16.8736 3.176 16.7176 3.32 16.9696 3.392C17.4256 3.5 17.7376 3.836 17.7376 4.148V11.792C17.7376 11.948 17.7856 12.092 18.1816 12.092C18.6736 12.092 19.3456 11.816 19.3456 11.456V7.4C19.5736 7.388 19.8136 7.376 20.0416 7.376V12.368C20.0416 12.524 20.0776 12.668 20.4736 12.668C20.9656 12.668 21.7576 12.392 21.7576 12.032V3.212C21.7576 2.864 21.8296 2.684 21.8656 2.624C21.9016 2.576 21.8176 2.516 21.5056 2.396C21.2056 2.288 19.9216 2.012 19.4656 2.048C19.1656 2.084 19.0096 2.228 19.2616 2.3C19.7176 2.408 20.0416 2.744 20.0416 3.056V6.92C19.8136 6.92 19.5736 6.92 19.3456 6.932V4.256ZM13.1656 9.416C13.1896 9.8 14.3296 9.524 14.6176 9.272C15.0976 9.248 15.6856 9.236 16.6576 9.236C16.9936 9.236 17.2816 9.248 17.2816 8.996C17.2816 8.84 17.0776 8.72 16.8376 8.66L17.2576 5.96C17.3296 5.78 17.6896 5.624 17.5696 5.48C17.4376 5.312 16.1296 4.628 15.9496 4.772C15.8536 4.844 15.6016 5.336 15.3376 5.372C15.0736 5.408 14.7856 5.408 14.6536 5.408C14.6176 5.372 14.5096 5.336 14.2816 5.288C13.9456 5.228 12.9136 5.18 12.5056 5.24C12.2176 5.288 12.0136 5.528 12.2896 5.552C12.7696 5.6 12.8776 5.756 12.9016 6.032L13.1656 9.416ZM15.5536 5.816L15.5056 8.828C15.2416 8.852 14.9056 8.84 14.6776 8.84L14.5936 6.092C14.5816 5.996 14.5816 5.912 14.5936 5.84L15.5536 5.816Z" fill="#1A1C18"/>
<defs>
<linearGradient id="paint0_linear" x1="17.6923" y1="19.4615" x2="17.6923" y2="0.846207" gradientUnits="userSpaceOnUse">
<stop stop-color="#7094FB"/>
<stop offset="1" stop-color="#F27C2B"/>
</linearGradient>
<linearGradient id="paint1_linear" x1="7.34486" y1="15.3714" x2="23.7531" y2="2.99657" gradientUnits="userSpaceOnUse">
<stop stop-color="#F5C856"/>
<stop offset="1" stop-color="#7094FB"/>
</linearGradient>
</defs>
</svg>
