<svg width="27" height="20" viewBox="0 0 27 20" fill="none" xmlns="http://www.w3.org/2000/svg">
<circle opacity="0.15" cx="17.6924" cy="10.1538" r="9.30763" fill="url(#paint0_linear)"/>
<circle opacity="0.25" cx="14.3076" cy="9.30763" r="9.30763" fill="url(#paint1_linear)"/>
<path d="M2.472 7.292C1.548 7.304 1.092 7.16 0.912 7.136C0.792 7.124 0.78 7.232 0.888 7.376C1.128 7.7 2.04 8.132 2.328 8.132C2.448 8.132 2.412 7.928 2.976 7.856C3.516 7.796 4.44 7.736 5.52 7.712V12.212C5.52 12.38 5.568 12.512 5.964 12.512C6.456 12.512 7.296 12.248 7.296 11.888V7.688C8.628 7.676 9.996 7.7 11.124 7.76C11.496 7.784 11.676 7.676 11.58 7.34C11.46 6.896 10.74 6.392 10.536 6.392C10.164 6.392 9.948 7.184 9.408 7.196L8.784 7.208C9.048 6.608 9.588 4.916 9.864 4.112C9.936 3.932 10.26 3.752 10.128 3.596C9.996 3.428 8.544 2.78 8.352 2.924C8.256 2.984 7.968 3.476 7.692 3.5C6.78 3.572 4.704 3.572 4.14 3.56C3.336 3.548 2.94 3.452 2.808 3.44C2.676 3.428 2.676 3.524 2.784 3.632C2.976 3.92 3.648 4.244 3.888 4.244C4.008 4.244 3.972 4.04 4.452 4.016C5.004 3.992 7.284 3.956 7.824 3.956C7.728 4.856 7.452 6.344 7.248 7.232L2.472 7.292ZM13.572 7.7C12.648 7.712 12.192 7.568 12.012 7.544C11.892 7.532 11.88 7.628 11.988 7.784C12.228 8.108 13.14 8.528 13.428 8.528C13.548 8.528 13.512 8.336 14.076 8.264C15.528 8.084 20.136 8.024 22.764 8.168C23.136 8.192 23.316 8.084 23.22 7.748C23.1 7.304 22.38 6.788 22.176 6.788C21.804 6.788 21.588 7.592 21.048 7.604L18.816 7.64V6.224L20.496 6.188C20.892 6.176 21.24 6.164 21.24 5.876C21.24 5.42 20.496 5.072 20.088 5.072C19.86 5.072 19.62 5.696 19.296 5.756C18.924 5.828 17.124 5.828 16.872 5.828C16.608 5.828 16.512 5.78 16.512 5.492L16.488 3.848C16.488 3.74 16.488 3.656 16.5 3.572C17.28 3.572 20.016 3.524 20.316 3.512C20.664 3.488 21 3.476 21 3.212C21 2.852 20.316 2.396 19.956 2.396C19.74 2.396 19.488 3.032 19.224 3.092C18.888 3.164 16.932 3.152 16.512 3.152C16.452 3.128 16.344 3.092 16.164 3.068C15.84 3.02 14.544 2.96 14.244 3.02C13.956 3.092 13.788 3.32 14.052 3.332C14.496 3.356 14.616 3.512 14.628 3.776L14.676 5.372C14.712 6.284 15.18 6.248 15.96 6.248H17.04V7.664L13.572 7.7ZM19.068 9.224C18.576 9.284 16.416 9.308 15.648 9.296C14.844 9.284 14.46 9.176 14.304 9.152C14.196 9.14 14.184 9.236 14.28 9.356C14.484 9.632 15.264 9.992 15.516 9.992C15.624 9.992 15.54 9.872 16.02 9.776C16.584 9.668 18.432 9.704 19.212 9.68V12.26C19.212 12.416 19.26 12.536 19.632 12.536C20.1 12.536 20.988 12.296 20.988 11.936V9.884C20.988 9.68 21.324 9.464 21.192 9.32C21.06 9.14 19.824 8.636 19.644 8.768C19.536 8.84 19.344 9.188 19.068 9.224Z" fill="#1A1C18"/>
<defs>
<linearGradient id="paint0_linear" x1="17.6923" y1="19.4615" x2="17.6923" y2="0.846207" gradientUnits="userSpaceOnUse">
<stop stop-color="#7094FB"/>
<stop offset="1" stop-color="#F27C2B"/>
</linearGradient>
<linearGradient id="paint1_linear" x1="7.34486" y1="15.3714" x2="23.7531" y2="2.99657" gradientUnits="userSpaceOnUse">
<stop stop-color="#F5C856"/>
<stop offset="1" stop-color="#7094FB"/>
</linearGradient>
</defs>
</svg>
