<svg width="13" height="26" viewBox="0 0 13 26" fill="none" xmlns="http://www.w3.org/2000/svg">
<path d="M1.984 14.7107C1.564 14.7107 1.368 14.6127 1.298 14.5707C1.228 14.5287 1.172 14.6267 1.032 14.9907C0.891999 15.3407 0.514 16.9087 0.555999 17.4547C0.598 17.8047 0.766 17.9727 0.85 17.6787C0.976 17.1607 1.368 16.7827 1.732 16.7827L12.596 16.7827C12.778 16.7827 12.946 16.7267 12.946 16.2647C12.946 15.6907 12.624 14.7107 12.204 14.7107L1.984 14.7107ZM1.494 21.5147C1.494 21.8367 1.704 21.9487 1.718 21.8227C1.746 21.6827 1.844 21.4727 1.956 21.4587C2.068 21.4587 2.194 21.4867 2.292 21.5287C2.418 23.0407 3.09 23.9927 4.518 23.9927C6.1 23.9927 6.744 22.8307 6.73 21.0527C6.702 19.3167 6.1 18.1547 4.518 18.1547C3.076 18.1547 2.362 19.1347 2.278 20.6467C2.152 20.5627 1.942 20.4507 1.774 20.4087C1.648 20.3527 1.494 21.1367 1.494 21.5147ZM9.362 23.4327C9.362 23.3487 9.138 23.3067 9.04 22.8307C8.998 22.5507 8.928 22.1727 8.83 21.7527L12.078 21.7527C12.274 21.7527 12.414 21.6967 12.414 21.2487C12.414 20.6887 12.12 19.7367 11.7 19.7367L8.284 19.7367C8.116 19.2327 7.948 18.7707 7.78 18.4207C7.612 18.0707 7.248 17.3007 7.01 17.1047C6.716 16.8527 6.562 16.8527 6.674 17.1607C7.388 18.9387 7.836 21.9207 7.836 23.8387C7.836 24.8187 7.752 25.1547 7.696 25.3927C7.696 25.5887 7.948 25.5327 8.172 25.3227C8.522 24.9867 9.362 23.7687 9.362 23.4327ZM4.49 21.9627C3.356 21.9627 2.88 21.6407 2.88 21.0527C2.88 20.4787 3.356 20.1707 4.49 20.1707C5.568 20.1707 6.072 20.4787 6.072 21.0527C6.072 21.6407 5.568 21.9627 4.49 21.9627ZM10.72 11.5273C10.734 12.5913 10.566 13.1373 10.538 13.3333C10.524 13.4873 10.636 13.5013 10.818 13.3613C11.196 13.0953 11.7 12.0173 11.7 11.6813C11.7 11.5413 11.42 11.5833 11.364 10.7853C11.182 7.87326 11.126 4.07927 11.266 1.40526C11.28 0.985265 11.168 0.761264 10.776 0.873265C10.244 1.02726 9.656 1.85326 9.656 2.09126C9.656 2.52526 10.58 2.70726 10.594 3.46326L10.636 5.84326L8.424 5.74526C8.424 4.69526 8.396 3.77126 8.382 3.40726C8.354 2.91726 8.354 2.62326 7.99 2.62326C7.542 2.62326 7.01 3.50526 7.01 4.00927C7.01 4.30326 7.794 4.61126 7.864 5.01726C7.948 5.45126 7.948 7.71926 7.948 7.99926C7.948 8.30726 7.892 8.41927 7.556 8.41927L5.946 8.41926C5.918 7.62126 5.876 5.42326 5.876 4.21926C5.876 3.81327 5.89 3.46326 5.582 3.46326C5.386 3.46326 5.26 3.70126 5.176 3.96726L3.482 3.35126C3.286 3.26726 3.132 2.81926 2.964 2.97326C2.754 3.12726 1.998 4.76526 2.152 4.98926C2.236 5.10126 2.74 5.43726 2.768 5.75926C2.866 6.82326 2.866 8.90926 2.852 9.56726C2.838 10.5053 2.712 10.9673 2.698 11.1213C2.684 11.2753 2.796 11.2753 2.936 11.1493C3.272 10.9253 3.65 10.1413 3.65 9.86126C3.65 9.73526 3.398 9.76326 3.37 9.20326C3.356 8.55926 3.314 6.23526 3.314 5.60526L5.414 5.80126C5.456 6.48726 5.456 7.88726 5.456 8.36326C5.414 8.41926 5.372 8.54527 5.344 8.81126C5.288 9.18927 5.204 10.7153 5.288 11.0653C5.372 11.4013 5.638 11.5833 5.652 11.2753C5.68 10.7573 5.848 10.6173 6.156 10.6033L7.416 10.5753C8.48 10.5473 8.438 9.91726 8.438 9.02126L8.438 7.80327L10.664 7.71926L10.72 11.5273Z" fill="#F8F5F1"/>
<path d="M1.984 14.7107C1.564 14.7107 1.368 14.6127 1.298 14.5707C1.228 14.5287 1.172 14.6267 1.032 14.9907C0.891999 15.3407 0.514 16.9087 0.555999 17.4547C0.598 17.8047 0.766 17.9727 0.85 17.6787C0.976 17.1607 1.368 16.7827 1.732 16.7827L12.596 16.7827C12.778 16.7827 12.946 16.7267 12.946 16.2647C12.946 15.6907 12.624 14.7107 12.204 14.7107L1.984 14.7107ZM1.494 21.5147C1.494 21.8367 1.704 21.9487 1.718 21.8227C1.746 21.6827 1.844 21.4727 1.956 21.4587C2.068 21.4587 2.194 21.4867 2.292 21.5287C2.418 23.0407 3.09 23.9927 4.518 23.9927C6.1 23.9927 6.744 22.8307 6.73 21.0527C6.702 19.3167 6.1 18.1547 4.518 18.1547C3.076 18.1547 2.362 19.1347 2.278 20.6467C2.152 20.5627 1.942 20.4507 1.774 20.4087C1.648 20.3527 1.494 21.1367 1.494 21.5147ZM9.362 23.4327C9.362 23.3487 9.138 23.3067 9.04 22.8307C8.998 22.5507 8.928 22.1727 8.83 21.7527L12.078 21.7527C12.274 21.7527 12.414 21.6967 12.414 21.2487C12.414 20.6887 12.12 19.7367 11.7 19.7367L8.284 19.7367C8.116 19.2327 7.948 18.7707 7.78 18.4207C7.612 18.0707 7.248 17.3007 7.01 17.1047C6.716 16.8527 6.562 16.8527 6.674 17.1607C7.388 18.9387 7.836 21.9207 7.836 23.8387C7.836 24.8187 7.752 25.1547 7.696 25.3927C7.696 25.5887 7.948 25.5327 8.172 25.3227C8.522 24.9867 9.362 23.7687 9.362 23.4327ZM4.49 21.9627C3.356 21.9627 2.88 21.6407 2.88 21.0527C2.88 20.4787 3.356 20.1707 4.49 20.1707C5.568 20.1707 6.072 20.4787 6.072 21.0527C6.072 21.6407 5.568 21.9627 4.49 21.9627ZM10.72 11.5273C10.734 12.5913 10.566 13.1373 10.538 13.3333C10.524 13.4873 10.636 13.5013 10.818 13.3613C11.196 13.0953 11.7 12.0173 11.7 11.6813C11.7 11.5413 11.42 11.5833 11.364 10.7853C11.182 7.87326 11.126 4.07927 11.266 1.40526C11.28 0.985265 11.168 0.761264 10.776 0.873265C10.244 1.02726 9.656 1.85326 9.656 2.09126C9.656 2.52526 10.58 2.70726 10.594 3.46326L10.636 5.84326L8.424 5.74526C8.424 4.69526 8.396 3.77126 8.382 3.40726C8.354 2.91726 8.354 2.62326 7.99 2.62326C7.542 2.62326 7.01 3.50526 7.01 4.00927C7.01 4.30326 7.794 4.61126 7.864 5.01726C7.948 5.45126 7.948 7.71926 7.948 7.99926C7.948 8.30726 7.892 8.41927 7.556 8.41927L5.946 8.41926C5.918 7.62126 5.876 5.42326 5.876 4.21926C5.876 3.81327 5.89 3.46326 5.582 3.46326C5.386 3.46326 5.26 3.70126 5.176 3.96726L3.482 3.35126C3.286 3.26726 3.132 2.81926 2.964 2.97326C2.754 3.12726 1.998 4.76526 2.152 4.98926C2.236 5.10126 2.74 5.43726 2.768 5.75926C2.866 6.82326 2.866 8.90926 2.852 9.56726C2.838 10.5053 2.712 10.9673 2.698 11.1213C2.684 11.2753 2.796 11.2753 2.936 11.1493C3.272 10.9253 3.65 10.1413 3.65 9.86126C3.65 9.73526 3.398 9.76326 3.37 9.20326C3.356 8.55926 3.314 6.23526 3.314 5.60526L5.414 5.80126C5.456 6.48726 5.456 7.88726 5.456 8.36326C5.414 8.41926 5.372 8.54527 5.344 8.81126C5.288 9.18927 5.204 10.7153 5.288 11.0653C5.372 11.4013 5.638 11.5833 5.652 11.2753C5.68 10.7573 5.848 10.6173 6.156 10.6033L7.416 10.5753C8.48 10.5473 8.438 9.91726 8.438 9.02126L8.438 7.80327L10.664 7.71926L10.72 11.5273Z" fill="#F5F7DF" fill-opacity="0.3"/>
<path d="M1.984 14.7107C1.564 14.7107 1.368 14.6127 1.298 14.5707C1.228 14.5287 1.172 14.6267 1.032 14.9907C0.891999 15.3407 0.514 16.9087 0.555999 17.4547C0.598 17.8047 0.766 17.9727 0.85 17.6787C0.976 17.1607 1.368 16.7827 1.732 16.7827L12.596 16.7827C12.778 16.7827 12.946 16.7267 12.946 16.2647C12.946 15.6907 12.624 14.7107 12.204 14.7107L1.984 14.7107ZM1.494 21.5147C1.494 21.8367 1.704 21.9487 1.718 21.8227C1.746 21.6827 1.844 21.4727 1.956 21.4587C2.068 21.4587 2.194 21.4867 2.292 21.5287C2.418 23.0407 3.09 23.9927 4.518 23.9927C6.1 23.9927 6.744 22.8307 6.73 21.0527C6.702 19.3167 6.1 18.1547 4.518 18.1547C3.076 18.1547 2.362 19.1347 2.278 20.6467C2.152 20.5627 1.942 20.4507 1.774 20.4087C1.648 20.3527 1.494 21.1367 1.494 21.5147ZM9.362 23.4327C9.362 23.3487 9.138 23.3067 9.04 22.8307C8.998 22.5507 8.928 22.1727 8.83 21.7527L12.078 21.7527C12.274 21.7527 12.414 21.6967 12.414 21.2487C12.414 20.6887 12.12 19.7367 11.7 19.7367L8.284 19.7367C8.116 19.2327 7.948 18.7707 7.78 18.4207C7.612 18.0707 7.248 17.3007 7.01 17.1047C6.716 16.8527 6.562 16.8527 6.674 17.1607C7.388 18.9387 7.836 21.9207 7.836 23.8387C7.836 24.8187 7.752 25.1547 7.696 25.3927C7.696 25.5887 7.948 25.5327 8.172 25.3227C8.522 24.9867 9.362 23.7687 9.362 23.4327ZM4.49 21.9627C3.356 21.9627 2.88 21.6407 2.88 21.0527C2.88 20.4787 3.356 20.1707 4.49 20.1707C5.568 20.1707 6.072 20.4787 6.072 21.0527C6.072 21.6407 5.568 21.9627 4.49 21.9627ZM10.72 11.5273C10.734 12.5913 10.566 13.1373 10.538 13.3333C10.524 13.4873 10.636 13.5013 10.818 13.3613C11.196 13.0953 11.7 12.0173 11.7 11.6813C11.7 11.5413 11.42 11.5833 11.364 10.7853C11.182 7.87326 11.126 4.07927 11.266 1.40526C11.28 0.985265 11.168 0.761264 10.776 0.873265C10.244 1.02726 9.656 1.85326 9.656 2.09126C9.656 2.52526 10.58 2.70726 10.594 3.46326L10.636 5.84326L8.424 5.74526C8.424 4.69526 8.396 3.77126 8.382 3.40726C8.354 2.91726 8.354 2.62326 7.99 2.62326C7.542 2.62326 7.01 3.50526 7.01 4.00927C7.01 4.30326 7.794 4.61126 7.864 5.01726C7.948 5.45126 7.948 7.71926 7.948 7.99926C7.948 8.30726 7.892 8.41927 7.556 8.41927L5.946 8.41926C5.918 7.62126 5.876 5.42326 5.876 4.21926C5.876 3.81327 5.89 3.46326 5.582 3.46326C5.386 3.46326 5.26 3.70126 5.176 3.96726L3.482 3.35126C3.286 3.26726 3.132 2.81926 2.964 2.97326C2.754 3.12726 1.998 4.76526 2.152 4.98926C2.236 5.10126 2.74 5.43726 2.768 5.75926C2.866 6.82326 2.866 8.90926 2.852 9.56726C2.838 10.5053 2.712 10.9673 2.698 11.1213C2.684 11.2753 2.796 11.2753 2.936 11.1493C3.272 10.9253 3.65 10.1413 3.65 9.86126C3.65 9.73526 3.398 9.76326 3.37 9.20326C3.356 8.55926 3.314 6.23526 3.314 5.60526L5.414 5.80126C5.456 6.48726 5.456 7.88726 5.456 8.36326C5.414 8.41926 5.372 8.54527 5.344 8.81126C5.288 9.18927 5.204 10.7153 5.288 11.0653C5.372 11.4013 5.638 11.5833 5.652 11.2753C5.68 10.7573 5.848 10.6173 6.156 10.6033L7.416 10.5753C8.48 10.5473 8.438 9.91726 8.438 9.02126L8.438 7.80327L10.664 7.71926L10.72 11.5273Z" fill="url(#paint0_linear)" fill-opacity="0.3"/>
<defs>
<linearGradient id="paint0_linear" x1="1.55023e-07" y1="13" x2="14" y2="13" gradientUnits="userSpaceOnUse">
<stop stop-color="white" stop-opacity="0"/>
<stop offset="1" stop-color="#F4DEBA" stop-opacity="0.6"/>
</linearGradient>
</defs>
</svg>
