<svg width="19" height="20" viewBox="0 0 19 20" fill="none" xmlns="http://www.w3.org/2000/svg">
<g clip-path="url(#clip0)">
<path d="M18.9925 11.0277C18.9925 13.2355 18.9925 15.4434 18.992 17.6517C18.992 17.7767 18.9965 17.9026 18.9821 18.0261C18.8973 18.7619 18.5172 19.1427 17.7712 19.1957C16.4206 19.2907 15.0685 19.3667 13.7169 19.4512C12.217 19.5446 10.7172 19.6401 9.21741 19.7316C7.99764 19.806 6.77786 19.878 5.55808 19.949C5.21212 19.969 4.86566 19.9865 4.51921 19.9985C3.98391 20.0175 3.56262 19.7975 3.23847 19.3707C2.37506 18.234 1.50867 17.0994 0.642286 15.9647C0.212067 15.3994 -0.00403363 14.7826 -6.84829e-05 14.0488C0.0202529 10.1415 0.00934874 6.23363 0.01034 2.3258C0.01034 2.19284 0.00637488 2.05738 0.0276876 1.92742C0.13772 1.26012 0.560009 0.901732 1.25391 0.851247C3.23004 0.707791 5.20518 0.556836 7.18081 0.41088C8.85213 0.287917 10.5234 0.166953 12.1947 0.0469894C12.4827 0.0264955 12.7712 0.0110002 13.0596 0.00050335C13.5464 -0.0174912 13.9915 0.122467 14.387 0.401883C15.7584 1.37109 17.1224 2.3508 18.4959 3.31701C18.8537 3.56893 19.0024 3.88184 18.9989 4.3282C18.9841 6.56203 18.9925 8.79486 18.9925 11.0277ZM17.6686 11.1057C17.6686 9.37318 17.6691 7.6402 17.6681 5.90773C17.6681 5.64131 17.6761 5.37389 17.6592 5.10847C17.6344 4.71658 17.4322 4.53414 17.0471 4.55563C15.8437 4.62211 14.6407 4.69509 13.4373 4.76757C11.8884 4.86054 10.3391 4.95601 8.79017 5.04898C7.3647 5.13396 5.93873 5.21493 4.51326 5.30191C4.1901 5.3214 4.02307 5.47886 3.96508 5.80576C3.94327 5.92772 3.93534 6.05368 3.93534 6.17764C3.93385 9.95951 3.93385 13.7414 3.93534 17.5232C3.93534 17.6557 3.94278 17.7902 3.96756 17.9196C4.031 18.252 4.19605 18.4085 4.5311 18.4515C4.68525 18.4709 4.84336 18.4734 4.99899 18.4669C5.39501 18.45 5.79053 18.424 6.18606 18.401C7.46333 18.3275 8.7411 18.255 10.0184 18.1805C11.6173 18.0876 13.2158 17.9941 14.8147 17.8986C15.5562 17.8541 16.2982 17.8146 17.0387 17.7532C17.4287 17.7207 17.627 17.4932 17.6587 17.1034C17.6681 16.9874 17.6686 16.8704 17.6691 16.754C17.6686 14.8705 17.6686 12.9881 17.6686 11.1057ZM16.2565 3.21354C16.2714 3.19004 16.2863 3.16655 16.3016 3.14306C16.2243 3.06658 16.1549 2.97961 16.0687 2.91613C15.4635 2.46876 14.8484 2.03389 14.2487 1.57903C13.7823 1.22563 13.2653 1.09267 12.6919 1.13666C12.1486 1.17815 11.6049 1.21264 11.0617 1.25213C9.83548 1.3411 8.60876 1.43107 7.38254 1.52155C6.13154 1.61402 4.88053 1.70749 3.62953 1.80096C3.09473 1.84095 2.55894 1.87194 2.02612 1.93092C1.9146 1.94342 1.81498 2.06038 1.7099 2.12936C1.77483 2.21934 1.8244 2.3283 1.90667 2.39678C2.34631 2.76117 2.80577 3.10157 3.23549 3.47646C3.67067 3.85634 4.15838 3.97931 4.72292 3.94032C6.46858 3.81885 8.21522 3.71339 9.96187 3.60742C11.997 3.48396 14.0326 3.36649 16.0677 3.24553C16.1311 3.24053 16.1936 3.22403 16.2565 3.21354Z" fill="#2D3029"/>
<path d="M8.48442 9.86751C8.48442 9.93949 8.48442 10.0115 8.48442 10.0834C8.48442 11.8249 8.48739 13.5659 8.48045 15.3069C8.47946 15.4983 8.52209 15.5858 8.72431 15.6178C9.03855 15.6683 9.34634 15.7582 9.65463 15.8312C9.61746 16.2126 9.41078 16.4425 9.02219 16.4965C8.68763 16.543 8.34812 16.5525 8.01058 16.573C7.36823 16.6125 6.72587 16.6485 6.0855 16.686C5.972 16.42 6.07956 16.1471 6.33481 16.0602C6.48301 16.0097 6.63468 15.9642 6.78833 15.9392C6.97419 15.9092 7.01632 15.8112 7.01583 15.6318C7.00889 14.0822 7.01186 12.5327 7.01186 10.9832C7.01186 10.1584 7.01186 9.33368 7.01186 8.50892C7.01186 8.41895 7.01186 8.32848 7.01186 8.21901C6.69168 8.18952 6.39082 8.16203 6.09195 8.13454C5.95862 7.72316 6.21288 7.28979 6.63319 7.2543C7.55459 7.17632 8.47748 7.12334 9.39938 7.04836C9.56344 7.03487 9.61399 7.13334 9.68041 7.23631C10.8035 8.97078 11.9267 10.7053 13.0498 12.4397C13.1752 12.6332 13.3016 12.8261 13.4637 13.075C13.4637 11.2681 13.4637 9.52712 13.4637 7.75165C13.2074 7.71916 12.9417 7.66968 12.6741 7.65618C12.4689 7.64568 12.4421 7.55521 12.4808 7.38326C12.5408 7.11834 12.741 6.88591 13.0176 6.86492C13.9216 6.79544 14.8277 6.74895 15.7278 6.69397C15.8566 7.16483 15.7337 7.36727 15.2866 7.45824C15.1414 7.48773 14.9972 7.52272 14.8306 7.56021C14.8306 7.65968 14.8306 7.75765 14.8306 7.85612C14.8306 10.5223 14.8282 13.188 14.8356 15.8542C14.8361 16.0522 14.7855 16.1671 14.5987 16.2251C14.3008 16.3176 14.0104 16.4415 13.7075 16.507C13.203 16.616 12.7678 16.466 12.4714 16.0272C12.0124 15.3469 11.5629 14.6601 11.1232 13.9668C10.2559 12.6012 9.39789 11.2296 8.53597 9.86052C8.51911 9.86202 8.50177 9.86502 8.48442 9.86751Z" fill="#2D3029"/>
</g>
<defs>
<clipPath id="clip0">
<rect width="19" height="20" fill="white"/>
</clipPath>
</defs>
</svg>
